<?xml version="1.0" standalone="no"?>
<!DOCTYPE svg PUBLIC "-//W3C//DTD SVG 20010904//EN"
 "http://www.w3.org/TR/2001/REC-SVG-20010904/DTD/svg10.dtd">
<svg version="1.0" xmlns="http://www.w3.org/2000/svg"
 width="9842.000000pt" height="9842.000000pt" viewBox="0 0 9842.000000 9842.000000"
 preserveAspectRatio="xMidYMid meet">
<metadata>
Created by potrace 1.16, written by Peter Selinger 2001-2019
</metadata>
<g transform="translate(0.000000,9842.000000) scale(0.100000,-0.100000)">
<path d="M22470 95565 c0 -40 -3 -47 -27 -56 -14 -5 -48 -25 -74 -44 -60 -45
-139 -80 -209 -93 -30 -6 -134 -13 -230 -16 -96 -3 -192 -11 -212 -16 -21 -6
-59 -29 -85 -52 -27 -23 -77 -55 -112 -71 -57 -27 -78 -31 -215 -39 -194 -12
-217 -18 -280 -79 -80 -78 -117 -91 -286 -104 -80 -6 -154 -16 -166 -23 -11
-6 -37 -30 -56 -54 -21 -26 -59 -55 -93 -72 -49 -24 -74 -29 -184 -35 -69 -4
-136 -13 -148 -19 -12 -7 -34 -31 -50 -54 -15 -22 -45 -55 -66 -72 -36 -29
-43 -30 -160 -37 -68 -3 -132 -11 -144 -17 -12 -7 -35 -29 -52 -50 -46 -59
-130 -99 -236 -112 -98 -12 -104 -15 -146 -77 -44 -64 -101 -92 -204 -103 -97
-10 -123 -23 -161 -80 -39 -59 -102 -91 -197 -101 -104 -10 -128 -21 -167 -75
-45 -63 -97 -93 -193 -110 -45 -7 -83 -14 -84 -14 -1 0 -21 -25 -44 -56 -32
-43 -55 -62 -102 -85 -34 -16 -75 -29 -90 -29 -39 0 -81 -24 -102 -57 -46 -73
-117 -123 -175 -123 -46 0 -65 -14 -104 -77 -42 -70 -90 -103 -146 -103 -56 0
-95 -23 -127 -73 -14 -23 -31 -47 -38 -53 -22 -23 -90 -54 -116 -54 -56 0 -89
-20 -114 -70 -27 -53 -89 -110 -120 -110 -55 0 -96 -22 -136 -73 -47 -60 -106
-103 -160 -117 -30 -8 -46 -22 -75 -65 -47 -72 -83 -101 -134 -109 -61 -10
-76 -20 -105 -74 -30 -55 -78 -97 -132 -115 -26 -8 -47 -27 -72 -63 -45 -64
-87 -100 -137 -116 -30 -10 -47 -26 -76 -70 -44 -66 -86 -100 -145 -117 -33
-9 -52 -24 -83 -64 -22 -29 -63 -68 -92 -87 -56 -38 -87 -67 -162 -153 -26
-30 -60 -61 -75 -67 -15 -6 -36 -25 -46 -43 -28 -48 -102 -123 -133 -136 -16
-7 -36 -26 -47 -43 -24 -42 -115 -134 -140 -142 -11 -3 -31 -23 -45 -43 -41
-62 -103 -122 -135 -133 -44 -14 -133 -129 -149 -191 -16 -61 -77 -136 -131
-160 -28 -12 -53 -35 -78 -71 -20 -29 -53 -69 -73 -88 -20 -19 -49 -62 -65
-95 -35 -76 -55 -98 -99 -111 -36 -10 -41 -17 -83 -114 -22 -52 -27 -57 -73
-70 -47 -14 -51 -18 -90 -93 -35 -67 -47 -82 -81 -97 -56 -25 -118 -116 -128
-188 -8 -60 -75 -162 -106 -162 -21 0 -45 -32 -55 -75 -12 -53 -43 -105 -63
-105 -49 0 -79 -22 -109 -78 -17 -31 -34 -75 -38 -97 -7 -40 -36 -90 -106
-178 -21 -27 -43 -67 -49 -90 -20 -74 -35 -94 -76 -102 -21 -3 -48 -13 -60
-21 -35 -22 -63 -88 -72 -169 -10 -89 -52 -159 -101 -170 -39 -9 -53 -32 -76
-124 -19 -76 -26 -87 -101 -170 -40 -44 -53 -79 -90 -226 -3 -15 -20 -25 -55
-35 -37 -11 -59 -25 -82 -54 -30 -36 -31 -42 -28 -120 1 -44 -3 -102 -9 -128
-10 -46 -12 -48 -63 -62 -59 -17 -78 -34 -101 -90 -12 -27 -14 -53 -10 -91 8
-58 -10 -164 -28 -170 -7 -2 -28 -6 -48 -9 -38 -7 -80 -38 -93 -71 -5 -11 -12
-76 -16 -144 -6 -115 -9 -126 -31 -143 -42 -32 -60 -52 -73 -83 -7 -17 -20
-37 -27 -45 -29 -29 -49 -109 -58 -221 -10 -128 -30 -189 -61 -189 -39 0 -90
-29 -102 -57 -6 -15 -14 -93 -18 -172 -5 -106 -10 -147 -21 -155 -8 -6 -31
-46 -53 -88 -27 -55 -44 -78 -57 -78 -39 0 -49 -38 -53 -206 -3 -107 -9 -172
-19 -199 -8 -22 -22 -61 -31 -86 -15 -40 -22 -48 -50 -53 -56 -11 -64 -28 -77
-176 -6 -73 -9 -163 -6 -199 3 -36 3 -87 0 -112 -5 -43 -8 -48 -43 -62 -31
-12 -43 -25 -63 -68 -14 -30 -28 -67 -32 -84 -3 -16 -11 -33 -17 -36 -17 -11
-27 -137 -28 -341 0 -109 -4 -198 -9 -198 -11 0 -25 -39 -41 -112 -11 -47 -18
-59 -41 -68 -27 -12 -69 -81 -69 -115 0 -11 -12 -15 -45 -15 l-45 0 0 -34580
0 -34580 45 0 c33 0 45 -4 45 -15 0 -34 42 -103 69 -115 23 -9 30 -21 41 -68
16 -73 30 -112 41 -112 5 0 9 -89 9 -197 1 -205 11 -331 28 -342 6 -3 14 -20
17 -36 4 -17 18 -54 32 -84 20 -43 32 -56 63 -68 35 -14 38 -19 43 -62 3 -25
3 -76 0 -112 -3 -36 0 -126 6 -199 13 -148 21 -165 77 -176 28 -5 35 -13 50
-53 9 -25 23 -64 31 -86 10 -27 16 -92 19 -199 4 -168 14 -206 53 -206 13 0
30 -23 57 -78 22 -42 45 -82 53 -88 11 -8 16 -49 21 -155 4 -79 12 -157 18
-172 12 -28 63 -57 102 -57 31 0 51 -61 61 -189 9 -112 29 -192 58 -221 7 -8
20 -28 27 -45 13 -31 31 -51 73 -83 22 -17 25 -28 31 -143 4 -68 11 -133 16
-144 13 -33 55 -64 93 -71 20 -3 41 -7 48 -9 18 -6 36 -112 28 -170 -4 -38 -2
-64 10 -91 23 -56 42 -73 101 -90 51 -14 53 -16 63 -62 6 -26 10 -84 9 -128
-3 -78 -2 -84 28 -120 23 -29 45 -43 82 -54 l50 -14 21 -71 c11 -38 24 -86 28
-105 3 -19 12 -39 19 -45 45 -37 112 -136 127 -190 25 -86 39 -108 75 -126 50
-23 90 -92 101 -175 12 -84 42 -158 69 -173 11 -6 38 -13 61 -17 46 -7 60 -25
80 -101 6 -23 28 -63 49 -90 70 -88 99 -138 106 -178 4 -22 21 -66 38 -97 30
-56 60 -78 109 -78 20 0 51 -52 63 -105 10 -43 34 -75 55 -75 21 0 99 -101
107 -139 10 -48 28 -84 53 -111 14 -15 40 -43 56 -62 17 -19 35 -37 41 -39 5
-2 28 -43 51 -91 38 -80 44 -87 80 -97 21 -6 44 -11 51 -11 7 0 24 -26 38 -57
43 -100 48 -107 84 -117 44 -13 63 -35 99 -111 16 -33 43 -73 60 -90 18 -16
52 -58 76 -91 27 -37 55 -64 70 -68 40 -10 123 -101 135 -149 22 -82 99 -192
146 -207 43 -15 94 -60 136 -121 18 -27 42 -52 53 -55 25 -8 116 -100 140
-142 11 -17 31 -36 47 -43 31 -13 105 -88 133 -136 10 -17 30 -36 43 -43 34
-15 65 -44 119 -114 28 -35 60 -64 82 -73 70 -29 130 -75 161 -123 21 -32 43
-53 68 -64 51 -21 86 -52 130 -116 28 -41 48 -58 76 -68 50 -16 92 -52 137
-116 25 -36 46 -55 72 -63 55 -19 95 -51 138 -115 27 -39 48 -60 67 -64 15 -3
36 -8 47 -11 35 -10 84 -54 114 -103 34 -54 44 -62 116 -79 67 -17 109 -44
136 -89 37 -63 59 -81 104 -88 54 -8 106 -50 141 -114 27 -50 59 -70 113 -70
26 0 94 -31 116 -54 7 -6 24 -30 38 -53 32 -50 71 -73 127 -73 56 0 104 -33
146 -103 39 -63 58 -77 104 -77 58 0 129 -50 175 -123 21 -33 63 -57 102 -57
15 0 56 -13 90 -29 47 -23 70 -42 102 -85 23 -31 43 -56 44 -56 1 0 39 -7 84
-14 96 -17 148 -47 193 -110 39 -54 63 -65 167 -75 95 -10 158 -42 197 -101
38 -57 64 -70 161 -80 103 -11 160 -39 204 -103 42 -62 48 -65 146 -77 106
-13 190 -53 236 -112 17 -21 40 -43 52 -50 12 -6 76 -14 144 -17 117 -7 124
-8 160 -37 21 -17 51 -50 66 -72 16 -23 38 -47 50 -54 12 -6 79 -15 148 -19
110 -6 135 -11 184 -35 34 -17 72 -46 93 -72 19 -24 45 -48 56 -54 12 -7 86
-17 166 -23 169 -13 206 -26 286 -104 63 -61 86 -67 280 -79 137 -8 158 -12
215 -39 35 -16 85 -48 112 -71 26 -23 64 -46 85 -51 21 -6 130 -15 242 -19
235 -11 281 -22 391 -97 36 -25 80 -50 97 -56 29 -10 32 -15 32 -55 l0 -44
26730 0 26730 0 0 44 c0 40 3 45 32 55 17 6 61 31 97 56 110 75 156 86 391 97
112 4 221 13 242 19 21 5 59 28 85 51 27 23 77 55 112 71 57 27 78 31 215 39
194 12 217 18 280 79 80 78 117 91 286 104 80 6 154 16 166 23 11 6 37 30 56
54 21 26 59 55 93 72 49 24 74 29 184 35 69 4 136 13 148 19 12 7 34 31 50 54
15 22 45 55 66 72 36 29 43 30 160 37 68 3 132 11 144 17 12 7 35 29 52 50 46
59 130 99 236 112 98 12 104 15 146 77 44 64 101 92 204 103 97 10 123 23 161
80 39 59 102 91 197 101 104 10 128 21 167 75 45 63 97 93 193 110 45 7 83 14
84 14 1 0 21 25 44 56 32 43 55 62 102 85 34 16 75 29 90 29 39 0 81 24 102
57 46 73 117 123 175 123 46 0 65 14 104 77 42 70 90 103 146 103 56 0 95 23
127 73 14 23 31 47 38 53 22 23 90 54 116 54 56 0 89 20 114 70 34 67 84 106
147 114 53 7 57 10 146 110 30 33 64 53 144 85 16 6 41 32 58 60 34 55 83 97
126 106 16 4 37 9 47 12 9 2 35 30 56 61 43 64 83 96 138 115 26 8 47 27 72
63 45 64 87 100 137 116 28 10 48 27 76 68 44 64 79 95 130 116 25 11 47 32
68 64 31 48 91 94 161 123 22 9 54 38 82 73 54 70 85 99 119 114 13 7 33 26
43 43 28 48 102 123 133 136 16 7 36 26 47 43 24 42 115 134 140 142 11 3 35
28 53 55 42 61 93 106 136 121 47 15 124 125 146 207 12 48 95 139 135 149 15
4 43 31 70 68 24 33 58 75 76 91 17 17 44 57 60 90 36 76 55 98 99 111 36 10
41 17 83 114 22 52 27 57 73 70 47 14 51 18 90 93 35 67 47 82 81 97 56 25
118 116 128 188 8 60 75 162 106 162 21 0 45 32 55 75 12 53 43 105 63 105 49
0 79 22 109 78 17 31 34 75 38 97 7 40 36 90 106 178 21 27 43 67 49 90 20 76
34 94 80 101 23 4 50 11 61 17 28 15 58 93 68 175 9 88 51 158 100 169 39 9
53 32 76 124 19 76 26 87 101 170 40 44 53 79 90 226 3 15 20 25 55 35 37 11
59 25 82 54 30 36 31 42 28 120 -1 44 3 102 9 128 10 46 12 48 63 62 59 17 78
34 101 90 12 27 14 53 10 91 -8 58 10 164 28 170 7 2 28 6 48 9 38 7 80 38 93
71 5 11 12 76 16 144 6 115 9 126 31 143 42 32 60 52 73 83 7 17 20 37 27 45
29 29 49 109 58 221 10 128 30 189 61 189 39 0 90 29 102 57 6 15 14 93 18
172 5 106 10 147 21 155 8 6 31 46 53 89 27 54 44 77 57 77 39 0 49 38 53 206
3 107 9 172 19 199 8 22 22 61 31 86 15 40 22 48 50 53 56 11 64 28 77 176 6
73 9 163 6 199 -3 36 -3 87 0 112 5 43 8 48 43 62 31 12 43 25 63 68 14 30 28
67 32 84 3 16 11 33 17 36 17 11 27 137 28 342 0 108 4 197 9 197 11 0 25 39
41 112 11 47 18 59 41 68 27 12 69 81 69 115 0 11 12 15 45 15 l45 0 0 28080
0 28080 -45 0 c-36 0 -45 3 -45 18 0 30 -29 61 -63 67 -30 6 -34 11 -50 68
-10 34 -24 76 -32 92 -10 21 -16 81 -19 195 -6 201 -10 231 -43 297 -25 48
-55 73 -88 73 -7 0 -16 8 -19 18 -15 55 -27 144 -35 279 -12 189 -25 221 -93
243 -57 18 -67 37 -78 160 -22 227 -31 279 -55 323 -25 43 -58 67 -95 67 -35
0 -44 37 -44 183 -1 132 -2 140 -24 157 -13 11 -43 22 -69 26 -41 6 -47 10
-64 48 -13 28 -19 65 -19 121 -1 90 -12 161 -28 177 -6 6 -28 14 -49 17 -34 6
-41 12 -70 66 -22 41 -33 74 -33 105 0 59 -24 147 -46 171 -9 10 -29 19 -43
19 -22 0 -31 11 -58 65 -20 38 -33 80 -33 102 -1 36 -20 129 -35 165 -4 10
-23 22 -44 28 -30 8 -42 19 -68 67 -19 35 -36 86 -42 125 -19 116 -45 156
-112 172 -32 7 -69 85 -77 158 -4 40 -14 58 -63 117 -32 38 -67 72 -77 75 -12
4 -28 33 -46 85 -31 88 -47 108 -91 113 -45 5 -85 69 -92 148 -5 57 -10 67
-49 109 -24 25 -44 49 -44 54 0 4 -14 16 -30 26 -21 12 -43 44 -69 97 -43 90
-52 99 -104 108 -42 8 -62 31 -83 102 -18 61 -28 72 -73 80 -43 8 -51 18 -97
112 -23 46 -50 84 -74 103 -21 17 -53 52 -71 79 -18 26 -48 55 -67 66 -36 19
-118 105 -134 140 -6 12 -21 27 -34 33 -37 16 -112 89 -135 131 -12 20 -35 45
-52 55 -50 30 -104 83 -132 131 -14 24 -30 44 -35 44 -20 0 -115 86 -142 131
-17 27 -40 51 -50 55 -31 10 -93 70 -128 124 -17 27 -41 52 -52 56 -31 9 -101
77 -133 128 -15 24 -42 50 -59 59 -18 8 -53 39 -77 68 -24 29 -64 71 -88 93
-49 46 -108 105 -162 163 -20 21 -56 55 -82 76 -25 20 -58 57 -74 81 -15 25
-38 49 -50 55 -36 17 -111 90 -134 131 -12 20 -35 45 -52 55 -48 29 -105 84
-128 125 -13 22 -46 54 -80 76 -39 26 -71 58 -96 96 -20 32 -45 61 -56 64 -30
10 -93 70 -127 124 -17 27 -41 52 -52 56 -31 9 -101 77 -133 128 -15 24 -42
50 -59 59 -18 8 -53 39 -77 68 -24 29 -64 71 -88 93 -49 46 -108 105 -162 163
-20 21 -56 55 -82 76 -25 20 -58 57 -74 81 -15 25 -38 49 -50 55 -36 17 -111
90 -134 131 -12 20 -35 45 -52 55 -48 29 -105 84 -128 125 -13 22 -46 54 -80
76 -39 26 -71 58 -96 96 -20 32 -45 61 -56 64 -30 10 -93 70 -127 124 -17 27
-41 52 -52 56 -31 9 -101 77 -133 128 -15 24 -42 50 -59 59 -18 8 -53 39 -77
68 -24 29 -64 71 -88 93 -49 46 -108 105 -162 163 -20 21 -56 55 -82 76 -25
20 -58 57 -74 81 -15 25 -38 49 -50 55 -36 17 -111 90 -134 131 -12 20 -35 45
-52 55 -48 29 -105 84 -128 125 -13 22 -46 54 -80 76 -39 26 -71 58 -96 96
-20 32 -45 61 -56 64 -30 10 -93 70 -127 124 -17 27 -41 52 -52 56 -31 9 -101
77 -133 128 -15 24 -42 50 -59 59 -18 8 -53 39 -77 68 -24 29 -64 71 -88 93
-49 46 -108 105 -162 163 -20 21 -56 55 -82 76 -25 20 -58 57 -74 81 -15 25
-38 49 -50 55 -36 17 -111 90 -134 131 -12 20 -35 45 -52 55 -48 29 -105 84
-128 125 -13 22 -46 54 -80 76 -39 26 -71 58 -96 96 -20 32 -45 61 -56 64 -30
10 -93 70 -127 124 -17 27 -41 52 -52 56 -31 9 -101 77 -133 128 -15 24 -42
50 -59 59 -18 8 -53 39 -77 68 -24 29 -64 71 -88 93 -49 46 -108 105 -162 163
-20 21 -56 55 -82 76 -25 20 -58 57 -74 81 -15 25 -38 49 -50 55 -36 17 -111
90 -134 131 -12 20 -35 45 -52 55 -50 30 -104 83 -132 131 -14 24 -30 44 -35
44 -20 0 -115 86 -142 131 -17 27 -40 51 -50 55 -31 10 -93 70 -128 124 -17
27 -41 52 -52 56 -31 9 -101 77 -133 128 -15 24 -42 50 -59 59 -18 8 -53 39
-77 68 -24 29 -64 71 -88 93 -49 46 -108 105 -162 163 -20 21 -56 55 -82 76
-25 20 -58 57 -74 81 -15 25 -38 49 -50 55 -36 17 -111 90 -134 131 -12 20
-35 45 -52 55 -50 30 -104 83 -132 131 -14 24 -30 44 -35 44 -20 0 -115 86
-142 131 -17 27 -40 51 -50 55 -31 10 -93 70 -128 124 -17 27 -41 52 -52 56
-31 9 -101 77 -133 128 -15 24 -42 50 -59 59 -18 8 -53 39 -77 68 -24 29 -64
71 -88 93 -49 46 -108 105 -162 163 -20 21 -56 55 -82 76 -25 20 -58 57 -74
81 -15 25 -38 49 -50 55 -36 17 -111 90 -134 131 -12 20 -35 45 -52 55 -50 30
-104 83 -132 131 -14 24 -30 44 -35 44 -20 0 -115 86 -142 131 -17 27 -40 51
-50 55 -31 10 -93 70 -128 124 -17 27 -41 52 -52 56 -31 9 -101 77 -133 128
-15 24 -42 50 -59 59 -18 8 -53 39 -77 68 -24 29 -64 71 -88 93 -49 46 -108
105 -162 163 -20 21 -56 55 -82 76 -25 20 -58 57 -74 81 -15 25 -38 49 -50 55
-36 17 -111 90 -134 131 -12 20 -35 45 -52 55 -50 30 -104 83 -132 131 -14 24
-30 44 -35 44 -20 0 -115 86 -142 131 -17 27 -40 51 -50 55 -31 10 -93 70
-128 124 -17 27 -41 52 -52 56 -31 9 -101 77 -133 128 -15 24 -42 50 -59 59
-18 8 -53 39 -77 68 -24 29 -64 71 -88 93 -49 46 -108 105 -162 163 -20 21
-56 55 -82 76 -25 20 -58 57 -74 81 -15 25 -38 49 -50 55 -36 17 -111 90 -134
131 -12 20 -35 45 -52 55 -50 30 -104 83 -132 131 -14 24 -30 44 -35 44 -20 0
-115 86 -142 131 -17 27 -40 51 -50 55 -31 10 -93 70 -128 124 -17 27 -41 52
-52 56 -31 9 -101 77 -133 128 -16 25 -41 50 -57 57 -28 11 -128 113 -128 129
0 5 -32 34 -70 65 -39 31 -85 78 -103 105 -18 27 -42 53 -54 59 -35 16 -100
79 -130 126 -15 24 -38 48 -50 54 -36 16 -111 90 -134 131 -12 20 -35 45 -52
55 -50 30 -104 83 -132 131 -14 24 -30 44 -35 44 -20 0 -115 86 -142 131 -17
27 -40 51 -50 55 -31 10 -93 70 -128 124 -17 27 -41 52 -52 56 -31 9 -101 77
-133 128 -16 25 -41 50 -57 57 -28 11 -128 113 -128 129 0 5 -32 34 -70 65
-39 31 -85 78 -103 105 -18 27 -42 53 -54 59 -35 16 -100 79 -130 126 -15 24
-37 48 -50 54 -35 16 -100 79 -129 126 -15 23 -41 51 -58 61 -49 29 -103 83
-131 130 -14 24 -30 44 -35 44 -20 0 -115 86 -142 130 -17 27 -43 54 -59 60
-32 14 -95 78 -124 128 -11 18 -47 52 -80 77 -34 25 -76 66 -95 91 -33 46 -79
74 -123 74 -28 0 -77 49 -105 106 -27 53 -42 65 -94 71 -56 8 -103 44 -139
108 -30 54 -60 75 -107 75 -45 1 -107 35 -143 80 -72 91 -80 96 -147 104 -72
8 -119 41 -153 107 -26 51 -52 67 -124 75 -80 9 -134 43 -175 111 -34 55 -66
73 -135 73 -46 0 -105 40 -152 102 -49 64 -79 78 -173 78 -75 0 -124 30 -172
102 -44 65 -71 78 -178 78 -85 0 -132 27 -182 100 -43 65 -72 78 -173 80 -92
1 -134 25 -193 112 -38 55 -71 68 -175 68 -115 0 -172 23 -243 96 -34 35 -73
68 -87 73 -13 5 -85 13 -158 16 -156 8 -185 20 -238 103 -20 31 -43 54 -61 61
-17 5 -92 13 -167 17 -193 9 -227 23 -325 132 -34 37 -60 42 -273 51 -194 8
-222 16 -289 89 -23 24 -53 50 -68 58 -24 13 -28 21 -28 59 l0 45 -20190 0
-20190 0 0 -45z m37974 -7358 c50 -23 101 -40 137 -44 41 -4 65 -13 88 -32
l31 -26 3 -4790 c2 -4466 4 -4796 20 -4879 17 -90 38 -129 78 -141 13 -4 23
-27 34 -80 9 -41 23 -79 31 -86 11 -9 14 -52 14 -213 0 -193 11 -310 31 -331
5 -5 9 -15 9 -22 0 -7 14 -44 31 -82 25 -55 38 -72 67 -87 21 -11 39 -21 42
-22 3 -2 5 -79 6 -170 1 -279 18 -337 103 -358 40 -9 45 -14 58 -55 8 -24 18
-107 24 -184 14 -197 53 -286 131 -302 48 -10 53 -24 53 -179 1 -162 7 -178
74 -189 27 -4 40 -13 48 -33 34 -78 53 -136 53 -160 0 -49 29 -137 51 -154 12
-10 31 -18 44 -18 17 0 29 -14 54 -64 18 -37 31 -80 31 -102 1 -56 26 -153 45
-174 10 -11 29 -20 44 -22 20 -2 33 -16 58 -63 18 -33 35 -80 38 -105 15 -110
60 -186 113 -192 32 -4 55 -46 81 -151 16 -62 25 -76 91 -145 61 -65 76 -88
96 -147 26 -77 52 -105 95 -105 38 0 73 -61 90 -155 12 -68 15 -72 85 -142 55
-56 77 -86 94 -133 28 -75 55 -110 84 -110 29 0 51 -24 90 -102 24 -47 41 -67
68 -80 42 -20 82 -66 111 -125 12 -24 24 -43 28 -43 14 0 109 -92 128 -124 10
-17 22 -46 26 -65 11 -50 89 -152 135 -176 52 -27 111 -81 145 -133 15 -23 37
-45 49 -48 25 -6 90 -71 130 -131 16 -23 37 -45 47 -48 23 -8 104 -89 136
-137 14 -21 34 -40 44 -43 24 -8 103 -87 136 -137 14 -21 33 -40 43 -43 33
-10 121 -83 156 -129 25 -33 53 -55 97 -75 75 -36 95 -52 136 -114 34 -50 62
-67 110 -67 35 0 84 -48 117 -112 26 -51 52 -68 104 -68 39 0 90 -46 129 -115
26 -47 36 -55 68 -61 61 -11 132 -54 164 -100 39 -57 75 -84 113 -84 49 0 132
-54 169 -110 32 -49 61 -70 97 -70 46 0 132 -53 172 -107 51 -66 61 -72 146
-80 88 -7 132 -33 182 -104 43 -61 76 -79 146 -79 16 0 49 -9 71 -20 40 -19
55 -33 125 -113 32 -37 36 -39 118 -46 116 -11 172 -37 240 -112 l56 -61 112
-8 c131 -9 161 -23 217 -107 41 -62 62 -70 217 -79 94 -5 116 -10 175 -39 38
-18 86 -51 108 -74 48 -50 73 -57 235 -66 159 -9 214 -29 291 -102 31 -30 72
-58 90 -64 19 -5 117 -12 219 -15 222 -6 246 -13 327 -93 38 -38 73 -63 99
-71 24 -7 157 -13 344 -16 347 -6 361 -9 443 -81 28 -25 65 -51 82 -59 91 -38
70 -38 5077 -41 l4858 -3 16 -25 c18 -28 21 -106 4 -150 -13 -35 -5 -110 16
-142 8 -12 29 -25 48 -29 33 -6 37 -11 68 -93 l33 -86 3 -25325 c2 -13929 0
-25794 -4 -26367 -5 -850 -9 -1043 -20 -1043 -20 0 -50 -50 -64 -109 -7 -30
-23 -64 -35 -75 -12 -12 -27 -31 -34 -43 -14 -27 -31 -263 -31 -444 0 -150
-17 -229 -49 -229 -10 0 -33 -5 -51 -11 -49 -17 -59 -55 -71 -252 -10 -181
-31 -287 -57 -287 -7 0 -30 -8 -49 -17 -52 -25 -72 -76 -73 -188 0 -120 -8
-163 -31 -170 -10 -3 -29 -25 -42 -48 -14 -23 -37 -53 -51 -66 -14 -14 -26
-33 -26 -44 0 -10 -10 -57 -22 -104 -18 -67 -30 -92 -59 -123 -64 -67 -96
-121 -103 -175 -3 -27 -14 -72 -25 -99 -15 -40 -24 -51 -55 -61 -72 -25 -106
-77 -116 -179 -4 -43 -16 -92 -30 -118 -19 -40 -28 -47 -61 -52 -45 -7 -57
-23 -90 -114 -18 -50 -29 -67 -55 -80 -34 -18 -134 -141 -134 -165 0 -17 -70
-127 -94 -146 -9 -8 -35 -49 -57 -91 -47 -92 -65 -110 -127 -130 -44 -14 -50
-20 -91 -96 -32 -60 -51 -83 -72 -91 -20 -8 -36 -26 -52 -60 -32 -70 -68 -113
-92 -113 -32 0 -61 -26 -85 -76 -37 -76 -66 -104 -109 -104 -47 0 -76 -21
-102 -73 -26 -51 -77 -107 -99 -107 -28 0 -61 -31 -80 -74 -26 -61 -74 -106
-114 -106 -60 0 -92 -19 -134 -79 -43 -61 -90 -92 -169 -111 -36 -9 -46 -18
-73 -65 -37 -65 -85 -105 -126 -105 -66 0 -102 -19 -147 -78 -51 -68 -100 -98
-176 -107 -73 -9 -82 -15 -121 -74 -46 -72 -84 -93 -204 -107 -108 -13 -100
-8 -169 -98 -39 -50 -88 -72 -182 -80 -112 -10 -138 -20 -181 -73 -60 -73
-130 -100 -289 -111 -71 -6 -142 -15 -157 -22 -15 -7 -39 -30 -54 -52 -19 -27
-47 -48 -93 -70 -63 -30 -71 -31 -246 -38 -202 -8 -219 -13 -295 -81 -25 -23
-70 -53 -100 -68 l-55 -26 -350 -6 c-232 -4 -387 -12 -460 -22 -77 -11 -178
-16 -335 -15 -249 2 -259 0 -369 -70 -30 -19 -78 -43 -107 -53 -52 -19 -625
-19 -23504 -19 -22879 0 -23452 0 -23504 19 -29 10 -77 34 -107 53 -110 70
-120 72 -369 70 -157 -1 -258 4 -335 15 -73 10 -228 18 -460 22 l-350 6 -55
26 c-30 15 -75 45 -100 68 -76 68 -93 73 -295 81 -175 7 -183 8 -246 38 -46
22 -74 43 -93 70 -15 22 -39 45 -54 52 -15 7 -85 16 -157 22 -159 11 -229 38
-289 111 -43 53 -69 63 -181 73 -94 8 -143 30 -182 80 -69 90 -61 85 -169 98
-120 14 -158 35 -204 107 -39 59 -48 65 -121 74 -76 9 -125 39 -176 107 -45
59 -81 78 -147 78 -41 0 -89 40 -126 105 -27 47 -37 56 -73 65 -79 19 -126 50
-169 112 -33 47 -49 60 -82 70 -61 17 -118 62 -146 114 -25 46 -62 74 -98 74
-23 0 -74 53 -101 107 -26 52 -55 73 -102 73 -43 0 -72 28 -109 104 -24 50
-53 76 -85 76 -24 0 -60 43 -92 113 -16 34 -32 52 -52 60 -21 8 -40 31 -72 91
-41 75 -47 82 -90 96 -62 20 -72 30 -119 118 -22 43 -53 88 -69 102 -35 30
-91 118 -91 141 0 27 -98 152 -133 171 -27 14 -38 29 -56 80 -33 91 -45 107
-90 114 -33 5 -42 12 -61 52 -14 26 -26 75 -30 118 -10 102 -44 154 -116 179
-31 10 -40 21 -55 61 -11 27 -22 72 -25 99 -7 54 -39 108 -103 175 -29 31 -41
56 -59 123 -12 47 -22 94 -22 104 0 11 -12 30 -26 44 -14 13 -37 43 -51 66
-13 23 -32 45 -42 48 -23 7 -31 50 -31 170 -1 112 -21 163 -73 188 -19 9 -41
17 -49 17 -25 0 -39 70 -53 261 -16 228 -26 257 -97 278 -43 13 -49 18 -63 59
-10 32 -15 86 -15 181 0 181 -17 417 -31 444 -7 12 -22 31 -34 43 -12 11 -28
45 -35 75 -14 60 -44 109 -66 109 -12 0 -14 443 -14 3300 l0 3299 83 -35 c430
-187 1312 -364 2900 -584 494 -68 697 -103 777 -132 93 -35 213 -56 383 -68
572 -40 4869 -40 5432 0 225 16 321 34 431 81 85 36 114 43 277 64 742 95
1780 281 2297 410 390 97 610 178 934 343 249 127 292 175 315 347 26 195 51
1079 51 1812 l0 331 33 11 c17 6 190 56 382 111 704 204 977 302 2015 727
1133 464 1771 759 2077 964 197 132 542 318 1208 652 499 250 722 382 950 563
271 215 472 412 543 531 96 163 245 328 1057 1173 413 429 476 497 576 622
186 233 227 351 250 721 11 184 3 312 -21 358 -6 10 -28 28 -49 39 -41 20 -51
41 -51 102 0 32 -5 40 -42 65 -24 16 -46 40 -50 53 -30 108 -74 234 -118 335
-90 209 -104 300 -75 482 31 193 35 235 45 483 11 286 0 764 -25 990 -45 419
-198 973 -325 1174 -47 75 -135 161 -187 182 -57 24 -97 11 -166 -54 -71 -68
-160 -199 -229 -336 -85 -170 -123 -284 -198 -594 -32 -131 -102 -320 -196
-522 -31 -69 -71 -165 -89 -215 -29 -85 -33 -90 -61 -93 -67 -7 -217 74 -369
198 -194 159 -489 515 -720 870 -177 272 -280 478 -419 839 -240 625 -319
1098 -320 1921 -1 320 1 373 17 429 23 85 48 123 103 160 152 100 582 167
1374 213 292 17 1002 17 1145 0 343 -40 578 -101 802 -207 l113 -54 -49 -79
c-27 -43 -93 -161 -146 -262 -53 -101 -119 -218 -145 -262 -105 -168 -262
-362 -481 -593 -263 -279 -329 -360 -348 -428 -38 -136 57 -221 267 -238 122
-9 673 6 751 21 30 5 102 32 160 59 137 63 218 90 491 161 335 88 710 219 865
304 184 101 357 135 880 176 391 31 518 59 704 155 197 103 365 243 868 722
253 240 474 437 628 561 66 53 163 130 215 172 117 94 216 179 456 394 378
339 810 685 1077 864 201 135 494 393 1006 882 280 267 448 451 461 504 6 23
24 76 40 119 38 101 66 240 79 400 13 158 14 1026 1 1235 -9 145 -11 157 -46
235 -36 79 -37 85 -36 192 2 149 -3 164 -64 195 l-49 25 -5 69 -5 69 -54 36
c-50 33 -56 41 -71 96 -75 272 -699 1501 -1102 2170 -172 286 -338 611 -338
663 0 32 -90 120 -172 167 -70 40 -83 57 -93 116 -8 50 -62 129 -204 299 -126
151 -295 392 -396 565 -85 146 -278 452 -536 851 -282 436 -436 680 -479 761
-46 87 -88 133 -207 225 -102 79 -153 140 -153 185 0 29 -48 91 -172 221 -110
116 -222 271 -282 391 -174 346 -275 813 -371 1716 -52 486 -133 832 -250
1065 -61 122 -164 246 -430 520 -190 195 -257 274 -284 334 -12 29 -69 96
-160 190 -85 88 -143 157 -147 173 -26 109 -215 397 -684 1043 l-207 285 -7
230 c-38 1301 -91 1844 -216 2225 -66 204 -135 320 -277 472 -100 107 -143
170 -143 209 0 64 -41 121 -120 167 -132 76 -322 247 -1015 913 -181 175 -373
354 -425 398 -95 81 -115 93 -284 171 -49 22 -181 94 -295 159 -230 132 -363
201 -494 255 -128 53 -207 95 -332 176 -117 76 -532 285 -730 368 -568 238
-1129 464 -1511 607 -82 31 -210 72 -284 91 -74 20 -238 76 -365 126 -378 149
-673 242 -1135 357 -422 106 -1192 270 -1835 391 -121 22 -230 45 -241 50 -18
7 -23 22 -33 87 -14 99 -28 456 -41 1063 -11 494 -25 913 -36 1061 l-7 86
-156 74 c-367 171 -643 266 -1136 387 -430 107 -773 173 -1580 307 -584 97
-712 124 -920 194 l-119 41 -3293 0 -3293 0 -128 -49 c-202 -77 -283 -94 -917
-186 -968 -142 -1708 -307 -2172 -483 l-103 -39 0 8043 c0 6974 2 8044 14
8044 22 0 52 49 66 109 7 30 23 64 35 75 12 12 27 31 34 43 14 27 31 263 31
444 0 95 5 149 15 181 14 41 20 46 63 59 71 21 81 50 97 278 14 191 28 261 53
261 8 0 30 8 49 17 52 25 72 76 73 188 0 120 8 163 31 170 10 3 29 25 42 48
14 23 37 53 51 66 14 14 26 33 26 44 0 10 10 57 22 104 18 67 30 92 59 123 64
67 96 121 103 175 3 28 14 72 25 99 15 40 24 51 55 61 72 25 106 77 116 179 4
43 16 92 30 118 19 40 28 47 61 52 45 7 57 23 90 114 18 51 29 66 56 80 35 19
133 144 133 171 0 23 56 111 91 141 16 14 47 59 69 102 47 88 57 98 119 118
43 14 49 21 90 96 32 60 51 83 72 91 20 8 36 26 52 60 32 70 68 113 92 113 32
0 61 26 85 76 37 76 66 104 109 104 47 0 76 21 102 73 27 54 78 107 101 107
36 0 73 28 98 74 28 52 85 97 146 114 33 10 49 23 82 70 43 62 90 93 169 112
36 9 46 18 73 65 37 65 85 105 126 105 66 0 102 19 147 78 51 68 100 98 176
107 73 9 82 15 121 74 46 72 84 93 204 107 108 13 100 8 169 98 39 50 88 72
182 80 112 10 138 20 181 73 61 74 130 100 294 112 149 10 135 3 213 105 47
61 63 65 299 75 238 9 251 12 328 82 25 23 70 53 100 68 l55 26 350 6 c232 4
387 12 460 22 77 11 178 16 335 15 249 -2 259 0 369 70 30 19 77 43 105 53 49
18 588 18 17356 16 l17305 -2 79 -38z m-35024 -21747 c780 -22 1690 -92 2905
-224 1031 -113 1434 -174 1707 -261 58 -19 236 -66 395 -105 691 -170 785
-194 928 -241 186 -61 373 -152 441 -212 59 -53 69 -81 84 -223 50 -487 53
-1509 53 -20139 0 -16879 -5 -20166 -36 -21072 l-12 -352 -60 -61 c-217 -221
-707 -400 -1675 -614 -450 -99 -1101 -224 -1380 -265 -436 -64 -1099 -110
-2065 -143 -482 -16 -2237 -16 -2730 0 -1085 36 -1773 87 -2250 168 -462 78
-1675 316 -2031 399 -598 139 -927 233 -1100 314 l-84 40 0 20999 0 20999 78
35 c191 88 402 153 797 247 257 61 412 102 640 166 436 123 1191 252 2015 344
304 34 1319 129 1555 145 441 31 1074 61 1335 64 69 1 289 -3 490 -8z m10662
-5637 c161 -88 405 -235 614 -369 850 -543 1447 -1069 1855 -1635 207 -287
314 -498 459 -899 74 -205 151 -378 206 -468 56 -89 193 -231 279 -289 173
-116 342 -175 660 -233 176 -31 312 -68 378 -102 91 -46 129 -99 338 -468 236
-420 462 -762 653 -990 39 -47 131 -150 205 -230 199 -216 234 -265 477 -675
243 -408 431 -654 769 -1005 103 -107 209 -226 236 -264 94 -132 110 -212 139
-696 32 -526 55 -724 126 -1095 122 -629 210 -819 645 -1396 427 -565 684
-932 1535 -2199 532 -790 763 -1146 886 -1365 28 -49 109 -182 181 -295 170
-267 203 -322 309 -525 49 -93 124 -222 167 -285 167 -247 826 -1406 943
-1660 166 -358 298 -827 298 -1061 0 -93 -11 -139 -33 -139 -27 0 -175 79
-268 143 -136 92 -204 129 -243 130 -38 1 -99 -28 -226 -108 -119 -75 -123
-75 -195 -19 -138 107 -249 172 -620 367 -292 153 -571 283 -693 323 -221 73
-522 110 -820 101 -268 -7 -409 -40 -617 -144 -137 -69 -198 -106 -635 -384
-404 -258 -500 -323 -507 -346 -6 -16 62 -35 302 -83 409 -81 688 -186 945
-358 450 -298 783 -764 1028 -1437 112 -307 123 -455 46 -611 -56 -113 -137
-197 -440 -455 -206 -176 -343 -300 -709 -644 -555 -522 -691 -633 -913 -744
-125 -63 -212 -89 -337 -102 -299 -31 -612 72 -1125 369 -279 161 -470 283
-1175 749 -794 524 -832 545 -1289 713 -344 127 -449 158 -659 199 -434 85
-844 111 -1747 111 -1440 0 -1814 -55 -2650 -392 -433 -175 -582 -249 -701
-351 -175 -150 -323 -368 -544 -802 -376 -742 -626 -1596 -710 -2425 -34 -335
-29 -821 10 -988 22 -95 68 -175 148 -259 369 -389 1295 -952 2467 -1501 408
-191 1142 -497 1440 -601 426 -148 1176 -380 1392 -431 107 -25 318 -49 923
-105 568 -52 823 -80 917 -100 104 -21 232 -89 305 -161 53 -53 64 -70 85
-135 21 -69 23 -91 23 -309 0 -224 -1 -237 -23 -285 -43 -92 -99 -135 -367
-277 -518 -275 -643 -394 -1215 -1153 -426 -565 -581 -737 -736 -819 -107 -57
-213 -44 -346 42 -136 90 -215 238 -265 503 -22 118 -25 580 -5 729 63 462
104 611 397 1457 109 318 110 373 6 358 -92 -13 -213 -48 -546 -160 -599 -200
-1037 -287 -1470 -289 -163 -1 -172 0 -213 24 -53 30 -105 109 -134 204 -57
187 25 436 216 657 106 123 156 189 156 208 0 10 -9 26 -21 37 -19 17 -37 19
-168 18 -114 0 -200 -8 -391 -37 -799 -118 -1238 -122 -1435 -13 -86 47 -119
102 -124 208 -2 64 2 95 24 166 32 103 101 244 198 402 38 63 83 142 99 175
l28 60 -25 3 c-34 4 -205 -43 -500 -138 -440 -143 -565 -166 -862 -158 -185 5
-235 20 -304 95 -82 89 -106 204 -74 347 34 154 96 275 215 416 90 106 108
140 92 174 -16 36 -61 45 -282 57 -107 6 -196 12 -196 13 -5 4 -34 2495 -34
2851 1 715 23 1075 80 1301 69 273 164 419 435 667 510 467 758 582 1615 747
146 28 456 89 690 135 504 100 499 99 710 124 232 28 485 47 1005 76 1208 67
1455 96 1455 171 0 33 -20 44 -122 64 -274 55 -1214 88 -2213 76 -949 -10
-1127 -29 -1755 -180 -168 -41 -321 -77 -340 -81 -19 -3 -43 -9 -52 -11 -91
-26 174 217 437 401 61 42 171 114 245 160 144 90 204 141 198 171 -5 31 -106
30 -225 0 -303 -77 -705 -234 -1408 -551 -252 -113 -552 -236 -607 -249 -16
-3 -28 -2 -28 2 0 16 195 226 304 327 135 125 227 194 387 290 232 139 421
229 716 341 191 72 349 116 810 223 452 105 472 111 487 134 28 44 -56 51
-539 44 -494 -8 -791 -31 -1160 -93 -191 -31 -181 -29 -494 -135 -258 -87
-304 -98 -315 -80 -18 28 213 294 414 476 248 225 454 374 700 505 194 104
250 151 250 210 0 100 -130 127 -795 165 -420 24 -628 45 -640 65 -5 8 246
124 510 235 421 177 811 308 1162 390 104 24 208 51 231 60 50 21 70 48 50 72
-7 9 -91 67 -186 130 -95 62 -219 148 -275 190 -236 179 -512 436 -577 539
-55 87 -45 84 255 -80 267 -145 579 -299 750 -369 206 -85 434 -160 970 -318
529 -155 818 -232 941 -249 87 -11 110 -8 118 18 14 46 26 119 40 237 34 289
95 374 371 509 259 128 530 201 796 215 80 4 151 11 157 15 24 15 13 54 -22
76 -53 32 -455 117 -1116 235 -173 31 -454 81 -625 111 -1020 182 -1884 371
-2350 515 -61 18 -67 22 -49 33 14 8 398 13 1439 17 1478 7 1717 13 2260 55
495 38 1170 133 1465 205 165 40 581 179 800 267 495 198 703 323 649 388 -19
23 -69 14 -278 -46 -321 -93 -849 -186 -1326 -234 -759 -77 -958 -91 -1500
-106 -648 -17 -1392 -8 -1549 21 -71 13 -166 47 -166 60 0 42 345 135 1135
304 1150 246 1721 399 2183 586 432 175 1066 535 1261 715 69 64 79 85 57 119
-14 22 -24 25 -76 25 -47 0 -89 -11 -196 -50 -470 -174 -1286 -322 -2179 -395
-241 -20 -786 -41 -811 -31 -18 7 -18 8 4 26 12 10 44 26 70 36 735 273 2127
1075 2471 1425 56 56 76 97 67 134 -6 22 -12 25 -49 25 -63 0 -317 -65 -682
-175 -722 -217 -1419 -382 -1945 -459 -211 -31 -549 -54 -582 -39 -22 10 -20
12 32 45 30 20 188 106 350 193 579 309 731 396 960 548 136 91 360 258 360
269 0 4 0 11 1 15 1 19 -76 19 -288 2 -611 -49 -1466 -103 -1500 -95 -12 4
-23 11 -23 17 0 6 44 71 99 143 178 237 305 439 299 478 -3 20 -48 42 -318
158 -364 157 -581 262 -804 390 -916 525 -1566 1220 -1905 2033 -50 121 -101
279 -101 313 0 25 2 26 44 22 55 -7 148 -50 269 -124 124 -77 305 -167 402
-200 137 -46 265 -43 311 7 26 29 23 155 -12 504 -21 212 -28 341 -32 605 -8
626 34 1055 133 1340 85 244 177 375 478 688 191 199 297 319 297 338 0 24
-89 91 -184 138 -273 135 -664 243 -1275 351 -354 63 -401 72 -421 86 -41 26
67 57 300 86 180 21 741 25 920 5 297 -33 531 -78 820 -158 330 -92 382 -104
471 -111 106 -7 159 7 159 42 0 96 -452 557 -855 870 -109 85 -306 216 -406
270 -90 48 -79 52 90 35 536 -54 1080 -178 1519 -346 208 -80 305 -127 413
-200 109 -73 147 -81 175 -39 12 19 15 41 12 88 -9 129 -78 234 -597 907 -262
339 -601 809 -601 833 0 24 457 -195 654 -312 504 -302 852 -607 1227 -1077
182 -227 268 -316 329 -342 51 -21 162 -12 232 20 147 68 155 187 32 516 -96
255 -253 583 -382 798 -218 363 -471 663 -1182 1404 -492 513 -781 830 -756
830 3 0 52 -25 108 -57z m-2550 -9622 c57 -49 236 -216 398 -372 625 -599 814
-751 1121 -900 303 -146 414 -205 414 -218 0 -36 -144 -79 -337 -100 -139 -16
-425 -14 -539 4 -566 85 -1031 570 -1169 1221 -25 117 -38 383 -21 427 6 15
15 27 21 27 5 0 56 -40 112 -89z m1983 -12396 c194 -32 392 -98 595 -199 171
-85 289 -165 391 -266 72 -71 93 -101 132 -180 126 -258 182 -652 222 -1580
40 -924 91 -1352 212 -1750 72 -239 132 -358 353 -695 150 -229 195 -309 186
-332 -11 -28 -88 -9 -221 55 -400 194 -801 493 -1135 849 -311 329 -529 707
-595 1027 -35 174 -35 466 0 696 9 58 23 150 31 205 24 157 7 238 -73 348 -20
29 -209 225 -418 437 -440 445 -493 508 -529 629 -27 93 -15 311 24 443 44
148 220 271 445 313 96 18 271 18 380 0z m5120 -3977 c56 -176 75 -378 75
-791 0 -326 -11 -520 -40 -727 -23 -158 -41 -224 -82 -301 -51 -97 -96 -111
-433 -130 -261 -15 -523 -7 -587 17 -27 10 -48 21 -48 24 0 14 133 242 245
421 69 109 154 250 190 313 89 157 261 505 323 651 182 434 255 596 285 634
17 21 43 -18 72 -111z m-4060 -6392 c-57 -39 -503 -266 -1330 -676 -954 -474
-1021 -506 -1270 -611 -82 -34 -321 -142 -530 -239 -494 -230 -754 -338 -938
-389 -103 -29 -132 -28 -146 7 -36 92 -55 344 -49 677 5 262 11 298 56 348 78
87 441 169 912 207 310 25 430 45 1095 180 918 187 1304 275 1935 439 294 77
292 77 265 57z"/>
<path d="M38013 65190 c-151 -7 -162 -11 -220 -69 -66 -65 -138 -88 -295 -90
-91 -2 -119 -5 -188 -22 -19 -5 -30 -19 -30 -41 0 -16 14 -18 153 -18 267 0
744 -36 932 -69 28 -5 86 -15 130 -21 171 -25 492 -94 700 -150 44 -12 94 -25
111 -29 18 -5 37 -12 44 -16 6 -4 44 -15 84 -25 40 -9 83 -23 97 -30 13 -7 33
-15 44 -16 11 -2 56 -16 100 -32 44 -17 96 -35 115 -42 63 -23 183 -71 255
-102 39 -17 84 -34 100 -40 17 -5 134 -61 260 -124 127 -63 236 -115 243 -115
6 1 12 -3 12 -8 0 -5 13 -11 29 -14 16 -3 35 -12 42 -20 27 -26 74 -52 133
-73 34 -12 75 -27 91 -33 17 -6 68 -24 115 -40 114 -38 145 -50 211 -77 31
-13 62 -24 68 -24 6 0 55 -20 108 -45 53 -25 103 -45 111 -45 8 0 117 -51 241
-114 124 -63 252 -126 284 -140 31 -14 57 -30 57 -34 0 -5 44 -33 98 -62 161
-89 396 -231 412 -250 8 -9 76 -57 150 -106 74 -48 146 -100 160 -114 14 -14
88 -73 165 -130 76 -58 181 -145 231 -195 51 -49 129 -121 174 -160 112 -95
222 -207 365 -369 66 -75 123 -136 127 -136 5 0 8 -7 8 -15 0 -8 6 -15 14 -15
12 0 150 -171 235 -292 19 -26 39 -49 46 -51 6 -3 56 -72 110 -154 54 -81 106
-155 115 -163 19 -17 134 -206 243 -400 38 -69 75 -129 82 -135 15 -12 75
-124 75 -139 0 -6 44 -101 99 -211 55 -110 104 -213 109 -230 5 -16 23 -61 40
-100 31 -72 79 -192 102 -255 7 -19 26 -71 42 -115 16 -44 33 -93 37 -110 5
-16 13 -41 18 -55 6 -14 18 -50 27 -80 9 -30 34 -113 57 -185 22 -71 45 -146
51 -165 6 -19 17 -51 25 -70 9 -19 23 -67 33 -107 10 -39 21 -77 25 -83 4 -7
11 -26 16 -44 4 -17 17 -67 29 -111 51 -189 121 -508 141 -640 6 -38 14 -95
19 -125 31 -197 43 -311 65 -583 8 -98 17 -182 20 -187 4 -6 2399 -10 6513
-10 5601 0 6524 2 6624 14 128 16 161 27 237 79 70 48 114 57 349 67 222 9
230 11 272 73 41 60 94 87 170 88 36 0 81 2 100 5 102 12 116 19 147 73 28 49
106 87 194 93 75 6 91 14 139 73 38 47 105 85 160 91 57 7 64 12 98 63 41 63
90 101 130 101 17 0 34 5 37 10 4 6 10 8 15 5 5 -3 20 16 34 42 33 65 72 99
129 114 44 11 58 22 116 94 8 10 78 70 96 83 6 4 27 30 47 57 38 52 88 95 110
95 8 0 26 19 41 42 15 23 51 67 80 97 29 31 61 76 71 100 20 52 39 72 80 87
32 11 41 24 75 107 11 26 26 49 33 51 7 2 32 9 54 15 35 9 45 18 63 55 11 24
23 75 27 113 4 37 15 86 25 108 16 36 24 42 68 54 61 15 60 15 80 191 11 93
26 124 66 129 74 8 86 31 95 190 6 116 9 128 32 154 14 15 31 47 38 71 7 24
27 60 45 79 24 25 36 50 42 84 4 26 8 489 8 1028 0 920 -1 983 -18 1008 -9 15
-18 39 -20 54 -4 43 -46 109 -83 129 -42 23 -48 48 -39 167 9 113 -7 167 -49
167 -17 0 -27 7 -32 22 -4 13 -15 34 -24 48 -25 36 -54 84 -55 90 -1 3 -5 28
-10 55 -11 59 -9 50 -24 103 -7 24 -21 51 -32 60 -11 9 -29 34 -40 54 -10 20
-28 39 -38 43 -11 3 -23 16 -27 28 -7 22 -39 99 -53 127 -4 8 -23 20 -42 26
-28 9 -40 23 -69 80 -19 37 -44 76 -55 85 -48 40 -63 56 -80 87 -11 17 -22 32
-26 32 -3 0 -9 18 -13 39 -3 22 -14 46 -24 53 -10 7 -31 33 -48 58 -16 25 -35
46 -42 46 -7 1 -16 2 -21 3 -13 2 -110 104 -132 139 -10 18 -24 32 -31 32 -17
0 -75 55 -118 113 -19 26 -40 47 -47 47 -19 0 -126 94 -142 123 -8 15 -20 27
-28 27 -7 0 -13 4 -13 9 0 5 -18 12 -39 16 -56 9 -128 60 -151 106 -26 50 -30
53 -115 66 -29 5 -49 17 -80 51 -109 120 -98 112 -159 112 -85 0 -143 36 -209
130 -14 20 -28 23 -130 31 -132 10 -165 24 -225 97 -20 26 -44 49 -52 51 -54
14 -109 19 -207 20 -132 2 -196 18 -252 64 -22 17 -57 45 -76 61 l-37 30 -186
7 c-233 9 -21054 8 -21249 -1z"/>
<path d="M49196 48430 c16 -16 71 -62 121 -102 51 -40 93 -77 93 -83 0 -5 59
-62 131 -125 157 -138 269 -249 364 -360 39 -45 111 -124 161 -175 50 -52 138
-156 195 -232 57 -76 115 -149 129 -163 14 -14 66 -86 114 -160 49 -74 97
-142 106 -150 19 -16 166 -258 243 -401 26 -47 56 -94 66 -103 11 -10 17 -24
15 -31 -3 -7 2 -15 10 -18 9 -4 16 -16 16 -27 0 -11 5 -20 10 -20 6 0 10 -9
10 -20 0 -10 6 -23 13 -27 6 -4 12 -13 12 -19 0 -7 46 -103 102 -215 56 -112
106 -217 111 -234 5 -16 23 -61 40 -100 55 -128 89 -217 158 -415 48 -136 73
-213 78 -246 1 -11 6 -27 11 -34 4 -7 11 -26 16 -44 4 -17 17 -67 29 -111 56
-208 125 -530 150 -700 6 -44 15 -100 20 -125 5 -25 18 -135 29 -245 27 -259
50 -455 61 -530 5 -33 16 -127 24 -210 60 -581 45 -1209 -43 -1770 -5 -33 -14
-91 -20 -130 -15 -97 -60 -312 -105 -500 -36 -147 -46 -200 -42 -212 5 -11
2002 -13 11048 -11 l11043 3 100 28 c55 15 143 49 195 75 l95 47 176 6 c97 4
186 10 197 13 11 4 30 9 42 11 13 2 38 22 56 43 45 53 130 92 213 98 176 12
210 23 232 76 21 51 73 80 158 88 116 12 127 17 167 72 43 58 101 98 143 98
48 0 77 16 102 57 27 44 87 102 109 104 93 7 109 15 145 72 29 46 78 84 133
103 34 12 39 18 97 104 24 36 38 46 71 53 37 7 43 13 75 74 37 72 55 87 111
97 35 6 39 12 74 84 34 74 38 79 80 91 38 11 48 20 74 69 17 31 33 73 36 94 4
20 15 45 25 54 11 9 19 22 19 28 0 15 55 63 80 71 10 3 22 16 26 28 3 12 17
47 31 79 22 48 29 57 58 62 18 4 38 12 43 19 15 18 52 115 54 143 1 13 5 24 9
24 3 0 6 6 6 13 0 6 10 33 21 59 12 26 22 52 22 57 0 6 11 11 24 11 38 0 64
53 77 151 16 134 29 161 80 179 24 8 49 19 55 23 18 11 24 64 32 270 6 147 10
190 22 197 8 5 17 7 21 4 10 -6 30 22 33 48 2 13 6 37 10 53 3 17 8 41 11 54
3 14 11 29 20 33 8 5 15 17 15 26 0 10 4 22 9 27 20 21 25 183 26 760 0 556
-1 603 -17 628 -10 14 -18 35 -18 45 0 14 -43 117 -55 130 -1 2 -15 5 -31 8
-16 3 -31 8 -34 10 -3 3 -6 78 -7 167 -1 89 -8 194 -14 233 l-11 72 -41 8
c-40 9 -41 10 -67 89 -15 44 -37 124 -50 178 -13 53 -29 102 -37 108 -7 7 -23
29 -34 49 -12 21 -32 44 -45 50 -16 9 -26 28 -35 64 -20 88 -34 113 -71 125
-47 16 -85 74 -97 149 -17 107 -58 166 -124 179 -24 5 -34 16 -54 62 -36 84
-37 85 -73 97 -37 12 -60 38 -95 106 -26 48 -49 68 -83 68 -24 0 -52 31 -87
96 -25 48 -57 74 -89 74 -18 0 -50 38 -75 92 -17 36 -30 49 -56 58 -41 14
-107 76 -126 118 -14 32 -28 40 -106 61 -33 9 -51 22 -75 57 -65 90 -70 94
-123 100 -27 3 -68 16 -90 29 -42 24 -85 68 -85 85 0 18 -64 50 -100 50 -50 0
-137 47 -168 91 -37 52 -67 67 -147 74 -134 11 -194 34 -266 102 -26 24 -57
46 -69 48 -12 2 -29 6 -38 9 -9 3 -68 7 -131 11 -63 3 -144 12 -180 21 -65 15
-151 57 -151 74 0 5 -26 21 -57 37 l-58 28 -12444 3 -12444 2 29 -30z"/>
<path d="M45057 31688 c-3 -18 -13 -76 -21 -128 -9 -52 -21 -126 -27 -165 -6
-38 -15 -97 -20 -130 -18 -123 -90 -449 -139 -630 -12 -44 -25 -94 -29 -111
-5 -18 -12 -37 -16 -44 -4 -6 -15 -44 -25 -83 -10 -40 -24 -88 -31 -107 -7
-19 -21 -60 -32 -90 -10 -30 -28 -77 -39 -105 -11 -27 -24 -63 -28 -80 -10
-37 -41 -114 -92 -230 -22 -49 -44 -104 -48 -122 -4 -17 -53 -120 -109 -228
-56 -108 -99 -200 -96 -205 2 -4 -2 -13 -10 -20 -8 -7 -15 -19 -15 -26 0 -8
-4 -14 -10 -14 -5 0 -10 -8 -10 -18 0 -11 -11 -31 -24 -47 -13 -15 -48 -71
-77 -124 -88 -159 -230 -395 -248 -411 -9 -8 -57 -76 -106 -150 -49 -74 -101
-146 -115 -160 -14 -14 -72 -88 -130 -165 -57 -77 -130 -165 -160 -195 -85
-83 -270 -287 -270 -297 0 -10 -133 -143 -144 -143 -9 0 -224 -197 -306 -280
-30 -30 -118 -102 -195 -160 -77 -57 -149 -114 -160 -126 -11 -12 -36 -32 -55
-45 -88 -59 -250 -203 -250 -223 0 -12 -152 -166 -164 -166 -9 0 -215 -188
-296 -270 -30 -30 -118 -103 -195 -160 -77 -58 -151 -116 -165 -130 -14 -14
-86 -66 -160 -115 -74 -49 -142 -97 -150 -106 -8 -9 -77 -54 -153 -99 -141
-84 -182 -116 -297 -230 -36 -36 -128 -112 -205 -170 -77 -58 -151 -116 -165
-130 -14 -14 -86 -66 -160 -114 -74 -49 -142 -97 -150 -106 -17 -19 -208 -135
-400 -243 -69 -38 -126 -73 -128 -78 -2 -5 -34 -22 -70 -40 -37 -17 -160 -78
-273 -135 -113 -57 -214 -104 -223 -104 -9 0 -42 -13 -74 -29 -31 -16 -88 -40
-127 -54 -38 -14 -86 -31 -105 -40 -19 -8 -51 -20 -70 -27 -192 -69 -296 -104
-357 -119 -39 -11 -77 -22 -83 -26 -7 -4 -26 -11 -44 -16 -42 -10 -168 -44
-241 -64 -120 -32 -90 -42 165 -49 l155 -5 80 -42 c44 -23 103 -48 130 -56 28
-8 84 -24 125 -36 l75 -22 17565 -3 c11548 -2 17622 1 17730 7 142 9 180 15
275 44 61 19 134 48 163 65 63 38 130 49 302 51 140 2 225 20 233 50 12 46
150 111 235 111 26 0 76 5 111 10 67 9 85 21 124 83 31 48 84 73 157 75 92 3
120 15 160 72 38 55 88 90 126 90 45 0 92 27 119 69 35 56 94 97 152 105 55 8
71 18 100 66 26 42 70 77 121 94 28 10 49 30 89 87 46 64 58 74 85 76 37 3 48
15 97 102 26 47 40 61 57 61 48 0 73 22 110 97 24 47 42 73 53 73 48 0 123 95
136 172 7 40 83 139 119 156 15 8 30 21 33 30 3 10 17 42 30 73 22 50 29 58
64 68 34 10 43 19 59 56 17 40 37 105 45 145 2 8 13 38 25 67 18 40 29 52 50
57 36 7 60 57 72 155 5 42 16 97 24 122 14 41 20 48 49 53 76 15 93 69 95 301
1 169 4 181 41 194 26 9 34 21 30 44 -1 5 5 30 13 57 8 26 12 51 8 54 -3 3 3
16 14 29 56 63 59 104 59 817 0 551 -1 598 -17 623 -10 14 -18 35 -18 46 0 28
-35 106 -59 130 -11 11 -27 17 -39 14 -27 -7 -32 26 -32 217 0 88 -6 179 -13
210 -12 52 -14 55 -47 57 -42 4 -45 6 -63 68 -9 28 -20 64 -26 80 -5 17 -20
71 -32 120 -12 50 -31 104 -43 120 -12 17 -28 43 -36 59 -8 15 -24 32 -36 36
-21 8 -34 29 -34 55 0 8 -9 38 -20 68 -17 44 -25 54 -52 62 -46 14 -85 75 -97
153 -16 102 -69 172 -131 172 -16 0 -27 13 -46 55 -13 31 -24 62 -24 70 0 15
-48 45 -72 45 -14 1 -71 80 -87 122 -7 19 -21 30 -49 37 -44 12 -81 48 -111
109 -13 26 -33 47 -49 54 -63 25 -74 34 -98 85 -27 54 -56 83 -84 83 -23 1
-77 55 -108 107 -25 42 -33 48 -82 59 -55 12 -80 33 -148 123 -14 19 -35 32
-55 36 -18 3 -44 7 -59 9 -35 6 -115 61 -123 84 -11 37 -53 64 -120 78 -85 18
-112 32 -163 88 -55 60 -67 65 -175 77 -106 12 -180 43 -236 101 -49 50 -74
57 -215 64 -188 8 -284 34 -355 97 -19 16 -51 37 -70 46 -33 15 -1176 16
-14537 19 l-14502 2 -5 -32z"/>
<path d="M23455 65600 c-395 -12 -959 -81 -1769 -216 -546 -91 -856 -158
-1036 -222 -52 -19 -147 -36 -345 -63 -250 -33 -614 -151 -1008 -326 l-147
-65 2 -20237 3 -20236 180 -81 c300 -136 400 -164 1220 -353 286 -66 576 -134
644 -151 589 -148 1540 -264 2631 -320 1037 -53 2419 -49 3405 10 885 53 2084
269 3101 559 377 108 571 181 774 292 l85 47 2 6389 c2 3513 -1 12622 -5
20242 l-7 13853 -120 45 c-153 56 -381 125 -687 209 -134 36 -400 108 -593
161 -539 148 -592 161 -715 187 -693 147 -1789 228 -3600 266 -670 14 -1724
19 -2015 10z m838 -3072 c4 -189 11 -1785 17 -3548 13 -3717 20 -4964 31
-4981 8 -13 77 -15 2094 -39 955 -11 1636 -25 1813 -36 l102 -7 0 -858 0 -859
-3125 0 -3125 0 0 5335 0 5335 1094 0 1094 0 5 -342z m3970 -11750 c-10 -757
-33 -1500 -47 -1515 -1 -1 -37 -7 -81 -14 -59 -9 -581 -13 -1981 -16 l-1901
-5 -7 -211 c-20 -630 -27 -875 -36 -1307 -5 -261 -13 -591 -16 -732 l-7 -258
1907 0 1906 0 0 -915 0 -915 -1906 0 -1907 0 7 -302 c3 -167 11 -541 16 -833
10 -501 21 -979 36 -1466 l7 -216 241 -7 c450 -12 1498 -25 2411 -31 827 -5
1285 -15 1483 -31 l72 -6 0 -869 0 -869 -3230 0 -3230 0 0 5345 0 5345 3133 0
3132 0 -2 -172z m-2633 -11532 c246 -23 562 -63 715 -92 746 -140 1261 -398
1600 -804 332 -397 664 -1092 855 -1786 116 -423 163 -835 212 -1829 16 -323
16 -1408 -1 -1850 -32 -878 -54 -1167 -122 -1577 -93 -567 -235 -1028 -445
-1448 -155 -309 -334 -561 -554 -780 -411 -409 -861 -638 -1544 -785 -227 -48
-376 -72 -531 -85 -207 -17 -1161 -25 -1279 -11 -206 24 -606 113 -821 182
-452 144 -870 392 -1175 698 -132 132 -216 237 -335 416 -355 535 -466 876
-655 2000 -90 535 -103 686 -121 1348 -18 683 3 2169 36 2517 32 338 144 1016
225 1355 59 248 176 579 300 845 406 878 936 1317 1900 1579 191 52 489 100
745 121 166 13 791 4 995 -14z m-152 -12337 c150 -18 259 -77 385 -208 169
-177 245 -384 234 -635 -11 -251 -108 -465 -299 -654 -100 -100 -124 -116
-208 -144 -57 -18 -95 -21 -301 -26 -431 -8 -510 17 -717 227 -252 255 -322
404 -294 629 45 354 169 581 392 712 112 65 236 101 400 114 66 5 312 -4 408
-15z"/>
<path d="M24945 37726 c-170 -44 -373 -134 -509 -225 -138 -92 -290 -271 -378
-445 -112 -221 -203 -530 -267 -904 -73 -421 -82 -685 -84 -2357 -2 -1242 3
-1498 34 -1975 60 -931 202 -1375 553 -1725 207 -207 435 -308 760 -336 581
-50 1063 164 1306 581 167 285 285 900 340 1765 62 988 60 2512 -6 3305 -66
797 -178 1381 -318 1658 -40 79 -140 204 -230 289 -207 193 -441 320 -663 358
-241 41 -408 44 -538 11z"/>
<path d="M25104 26789 c-246 -24 -446 -164 -550 -384 -80 -169 -105 -424 -58
-587 36 -121 118 -201 299 -288 234 -114 488 -145 695 -84 171 50 313 172 396
339 l49 98 0 176 c0 154 -3 185 -22 246 -76 242 -356 458 -623 480 -36 3 -76
7 -90 9 -14 1 -57 -1 -96 -5z"/>
<path d="M40950 53160 c-389 -19 -553 -61 -1700 -435 -757 -247 -881 -285
-1125 -345 -421 -104 -582 -121 -1232 -127 -977 -10 -1133 26 -1545 355 -192
153 -248 192 -275 192 -25 0 -25 -1 -21 -60 3 -46 16 -82 55 -162 67 -133 189
-318 291 -439 292 -347 841 -755 1093 -813 312 -72 1416 -70 1703 4 40 10 131
48 202 83 156 78 237 113 285 122 32 6 42 1 125 -63 49 -39 143 -118 209 -177
l120 -107 6 103 c4 57 7 174 8 259 1 183 17 491 32 609 12 98 28 131 78 159
53 30 178 62 241 62 70 0 109 -23 147 -87 l28 -48 0 -300 c0 -165 -1 -415 -3
-556 -3 -220 -1 -261 12 -288 33 -63 84 -67 176 -12 213 127 526 501 769 920
109 188 209 281 303 281 38 0 54 -6 79 -28 43 -39 49 -99 19 -218 -47 -190
-221 -573 -342 -754 -125 -187 -291 -326 -468 -391 -106 -38 -180 -53 -360
-74 -319 -35 -540 -116 -805 -293 -119 -80 -240 -198 -275 -267 -20 -40 -25
-65 -25 -127 0 -69 3 -80 30 -119 38 -55 101 -94 185 -115 97 -25 324 -15 489
21 330 71 681 199 1168 426 418 195 567 254 696 279 62 12 83 2 168 -87 88
-91 160 -190 357 -488 90 -137 187 -281 214 -318 97 -131 228 -202 690 -371
290 -106 570 -244 921 -453 247 -147 459 -254 551 -277 95 -23 196 -22 230 5
17 13 26 30 26 49 0 60 -100 221 -352 567 -387 531 -626 958 -818 1463 -137
361 -208 629 -285 1083 -90 523 -151 720 -287 920 -56 83 -184 209 -270 264
-126 82 -343 141 -588 162 -159 14 -742 21 -930 11z"/>
<path d="M38893 44221 c-68 -32 -82 -81 -35 -128 35 -35 232 -147 597 -338
1026 -540 1654 -959 2555 -1704 498 -412 874 -743 965 -847 43 -51 95 -130 95
-146 0 -37 -111 27 -553 316 -395 258 -576 370 -871 538 -116 66 -248 142
-294 169 -145 86 -762 410 -907 477 -622 286 -1171 458 -1843 577 -502 90
-978 121 -1094 72 -49 -21 -66 -55 -48 -97 32 -77 165 -134 580 -246 419 -114
973 -293 1325 -429 654 -253 1949 -914 2680 -1369 116 -71 275 -163 355 -203
129 -65 153 -81 214 -145 68 -69 69 -72 47 -82 -56 -25 -521 88 -1421 345
-559 160 -801 239 -1120 364 -334 131 -662 224 -1230 349 -835 183 -1632 300
-2050 301 -230 0 -248 -3 -307 -58 -65 -59 12 -127 215 -191 117 -37 251 -62
462 -86 299 -34 544 -80 1015 -190 916 -214 1602 -413 2195 -637 292 -110 481
-177 1125 -393 605 -203 797 -272 1155 -412 477 -187 609 -218 938 -218 263 0
411 25 498 85 165 114 363 406 340 501 -59 232 -1581 1631 -2619 2406 -738
550 -1769 1116 -2455 1347 -256 86 -424 110 -509 72z"/>
</g>
</svg>
